<svg width="14" height="14" viewBox="0 0 14 14" fill="none" xmlns="http://www.w3.org/2000/svg">
<path d="M10.6 13.6667C7.87823 13.6631 5.26892 12.5803 3.34431 10.6557C1.4197 8.73112 0.336902 6.1218 0.333374 3.39999C0.333374 2.58666 0.656468 1.80665 1.23158 1.23153C1.80669 0.656423 2.58671 0.333328 3.40004 0.333328C3.57227 0.332016 3.74421 0.347647 3.91337 0.379995C4.07691 0.404195 4.23769 0.444388 4.39337 0.499995C4.50287 0.538414 4.60045 0.60475 4.67645 0.692443C4.75245 0.780136 4.80424 0.886147 4.82671 0.999995L5.74004 4.99999C5.76466 5.10857 5.76169 5.22158 5.73142 5.32872C5.70114 5.43585 5.64451 5.5337 5.56671 5.61333C5.48004 5.70666 5.47337 5.71333 4.65337 6.13999C5.31004 7.58057 6.46217 8.73743 7.90004 9.39999C8.33337 8.57333 8.34004 8.56666 8.43337 8.47999C8.513 8.40219 8.61085 8.34556 8.71799 8.31528C8.82512 8.28501 8.93813 8.28204 9.04671 8.30666L13.0467 9.21999C13.1569 9.24556 13.2588 9.29876 13.3428 9.37457C13.4267 9.45037 13.49 9.5463 13.5267 9.65333C13.583 9.81157 13.6254 9.9744 13.6534 10.14C13.6802 10.3075 13.6936 10.477 13.6934 10.6467C13.6811 11.4565 13.3489 12.2286 12.7694 12.7944C12.1898 13.3602 11.41 13.6738 10.6 13.6667ZM3.40004 1.66666C2.94087 1.66842 2.50101 1.8516 2.17633 2.17628C1.85165 2.50097 1.66846 2.94083 1.66671 3.39999C1.66847 5.76872 2.61023 8.03992 4.28517 9.71486C5.96011 11.3898 8.23132 12.3316 10.6 12.3333C11.0592 12.3316 11.4991 12.1484 11.8238 11.8237C12.1484 11.499 12.3316 11.0592 12.3334 10.6V10.38L9.24004 9.66666L9.04671 10.0333C8.74671 10.6133 8.52671 11.0333 7.96671 10.8067C6.86196 10.4112 5.85917 9.77468 5.0312 8.94325C4.20322 8.11181 3.57086 7.10638 3.18004 5.99999C2.94004 5.47999 3.39337 5.23999 3.96671 4.93999L4.33337 4.75999L3.62004 1.66666H3.40004Z" fill="#969696"/>
</svg>
